PathFileType	4	(X/Y/Z)	Patient4_TMGait_0pt3_03_left_21.trc.trc
DataRate	CameraRate	NumFrames	NumMarkers	Units	OrigDataRate	OrigDataStartFrame	OrigNumFrames
53.846153846154	53.846153846154	6	33	mm	53.846153846154	71	       141
Frame#	Time	Sacral			L.Shoulder			Chest			R.Shoulder			Neck			R.ASIS			L.ASIS			R.Thigh.Superior			R.Thigh.Lateral			R.Thigh.Inferior			R.Patella			L.Thigh.Superior			L.Thigh.Lateral			L.Thigh.Inferior			L.Patella			L.Shank.Superior			L.Shank.Lateral			L.Shank.Inferior			R.Shank.Superior			R.Shank.Lateral			R.Shank.Inferior			R.Heel			R.Midfoot.Superior			R.Midfoot.Lateral			R.Toe			L.Heel			L.Midfoot.Lateral			L.Midfoot.Superior			L.Toe			L.Elbow			L.Wrist			R.Elbow			R.Wrist			
		X1	Y1	Z1	X2	Y2	Z2	X3	Y3	Z3	X4	Y4	Z4	X5	Y5	Z5	X6	Y6	Z6	X7	Y7	Z7	X8	Y8	Z8	X9	Y9	Z9	X10	Y10	Z10	X11	Y11	Z11	X12	Y12	Z12	X13	Y13	Z13	X14	Y14	Z14	X15	Y15	Z15	X16	Y16	Z16	X17	Y17	Z17	X18	Y18	Z18	X19	Y19	Z19	X20	Y20	Z20	X21	Y21	Z21	X22	Y22	Z22	X23	Y23	Z23	X24	Y24	Z24	X25	Y25	Z25	X26	Y26	Z26	X27	Y27	Z27	X28	Y28	Z28	X29	Y29	Z29	X30	Y30	Z30	X31	Y31	Z31	X32	Y32	Z32	X33	Y33	Z33	

71	37.770000000000	696.060413777831	1011.032555781317	398.083266967069	926.737037441666	1429.606773540240	241.526325114604	986.953317085938	1365.068191276964	423.526918479950	868.968346525346	1446.517951048884	571.974504437991	866.209316313166	1495.526965303202	390.706867615055	897.545898880270	950.704225086706	561.028659916800	936.536513591564	956.178569129710	289.090946325957	972.452588200647	770.692705483657	543.121539598804	919.215191815155	655.492676168943	616.789583660435	1009.215925950375	609.065712178899	543.654908042514	1035.733317519574	519.974390813867	570.377812479097	954.710739866353	732.707753906060	329.703296016939	864.443673351225	622.115981450778	259.364343527709	928.494070715515	540.352981003999	337.176791641918	919.750064854412	471.134621191572	347.814299300298	882.835412454917	401.813970477822	337.456525485662	786.430675645984	298.663807465470	276.795667435520	807.633488535494	184.428306874953	355.333240111017	999.988412285192	432.754154092510	583.618761726776	918.446540186269	339.524147342772	649.253648235558	968.200921395613	237.059512166003	607.224319596708	837.156092649680	68.274602260528	583.859853904041	1006.697630698496	120.132301087592	628.653047429859	917.780128700715	58.067548305927	661.464895238734	1123.610568844240	69.911759331972	662.279500313429	658.869950464137	39.555650050833	387.158151320412	737.694052467965	35.403530621989	311.259417469496	820.499646967117	94.575234703075	344.566313103929	949.662621119014	40.168828877757	322.250342324965	1025.803410865206	1106.168806662002	105.550998620796	1270.412409541608	1016.761408390324	123.361870429308	695.933137980711	1144.529011517731	662.178452245430	654.962647962629	886.950841847479	680.187449020607	
72	37.788571428571	696.260380266708	1011.046693359048	400.518409878673	927.230526929327	1429.039352095843	243.923818467540	987.331556149993	1364.660250826998	425.971301070110	869.636332676336	1446.674273458744	574.329236887761	866.799114649050	1495.255207908807	392.987581339544	897.152849655169	950.030580207817	563.874087123948	936.645111820080	955.743324933883	291.804976079163	969.510751728862	768.009685640409	546.915275881696	914.093594846912	653.506332257832	619.938689963172	1003.808453746192	606.538487234120	546.815521390804	1030.150752911145	520.041896996060	572.304485785240	952.279020016876	731.776536449698	331.822892921684	860.646681500155	622.473702726133	260.455147222769	923.471529196032	539.644283022798	337.792658763768	913.715637007924	470.744047101975	348.161553225230	877.190892570279	401.819735620746	337.649422114748	780.602650873632	298.808244490296	277.025758288963	802.002141473554	184.432843905015	355.424620981596	999.147311070294	432.375838108967	585.759778682569	923.323957943853	334.478220167154	652.270887295764	978.526805635873	234.549611464835	609.638220682643	856.310078994545	58.760845391089	587.222860873939	1023.837651355255	118.369849214053	630.262882713849	938.355337595093	51.891415182290	663.918238823155	1143.954057669598	73.708513544269	662.664352248995	653.276450559452	39.487418165335	387.191644549250	732.058162902590	35.353399203843	311.289921795154	814.890658200604	94.532739490908	344.582130393996	944.032448676441	40.146493432202	322.264925656722	1029.363859351000	1107.191507667664	107.971645061252	1277.190011858915	1027.884226746926	126.344867761810	696.292754962201	1145.161335180316	663.836191097861	654.960070908472	887.297523874346	680.731096989057	
73	37.807142857143	696.690629553511	1010.597327372267	403.413339674048	927.349635595175	1428.242962728222	246.662421695572	987.701229500475	1363.998927499195	428.625272750791	870.455349889268	1446.371228992638	577.144180856677	867.274858911468	1494.669176210156	395.740916362263	897.285285146900	948.932120074283	566.820902990908	936.864280903204	955.106459488130	294.567977793135	967.318339670052	765.098426582514	550.702270264062	909.692660749140	651.105555479505	622.895672812434	999.293543271503	603.840302452532	549.857009731638	1025.077155762780	519.510268493629	573.948750300670	950.235123673913	730.717200018853	333.957685870677	857.204703358088	622.674893955709	261.693097202716	918.857719533172	538.826504897233	338.509944399775	908.128459527550	470.212852396970	348.627964779420	871.892158037443	401.657355617383	337.962970242063	774.986195976155	298.911993847765	277.345634884757	796.484706253335	184.354253572486	355.568791101669	998.182745795330	431.496842064769	587.523661287142	927.355028103632	329.902537090164	654.740746927308	986.861283332494	232.353473668769	611.372036794832	872.046516672505	51.576391340812	589.876758829219	1037.797179421616	116.932193678304	631.052251113911	955.260181210054	47.182217416714	665.557471950556	1160.251018398941	76.567874170993	661.976106256127	647.680238336090	39.387985752113	387.227496745165	726.418982357856	35.289046184913	311.325985049447	809.284557413150	94.488111965638	344.604216772573	938.397107203765	40.123046339667	322.278538751957	1032.459843005299	1107.927145479579	110.679484558514	1282.953338987376	1038.297864489148	129.369622967211	697.871018255754	1144.643526063752	666.213740968170	656.725101159138	886.459216819137	682.138279369530	
74	37.825714285714	697.396204257691	1009.757571556626	406.764807258848	927.123393503134	1427.312466079774	249.778155845095	988.073279036419	1363.176305000421	431.529633274922	871.402252114426	1445.684255694398	580.441326042097	867.634746329673	1493.841998633313	398.998012025487	897.998999981699	947.516608519694	569.871473045440	937.252600794820	954.346856424536	297.399568673088	966.038347060068	762.133340056929	554.396922819997	906.248390085066	648.425199519412	625.581976489612	995.896655137516	601.133606687869	552.681152171838	1020.766409988873	518.462366468957	575.263853200694	948.567611229012	729.547371802595	336.105097669483	854.054383301638	622.766796726474	263.086398490788	914.574906532009	537.928995562089	339.332149103648	902.918523185521	469.578505085149	349.217129242799	866.869082998870	401.372797925631	338.395293910867	769.521857989569	299.008498075540	277.752360395872	791.047624514015	184.221603170629	355.760299696650	997.246382711828	430.138453206012	588.899942371875	930.492519835623	325.803743543929	656.624105582881	993.115063584199	230.316458345408	612.431509922335	883.982907097203	46.473317872687	591.773548820036	1048.374895355908	115.599670246026	631.110044569951	968.118776404041	43.726269997834	666.443809272243	1172.366442464723	78.191637499990	660.474074902764	642.078098377061	39.263980126257	387.261230786724	720.775019629715	35.214015433544	311.367548472520	803.677706901455	94.448072313607	344.628324588720	932.754737111461	40.098540146834	322.289273435850	1035.018942198397	1108.437548584578	113.666737485340	1287.661165305740	1047.902934011143	132.424672343472	700.495728220453	1143.144655381254	669.329140561186	660.058710421273	884.622411769954	684.475283883666	
75	37.844285714286	698.410329783639	1008.614313147027	410.562073871488	926.599391266005	1426.340358476979	253.297605758818	988.467339699447	1362.283175494387	434.718643669088	872.466331994989	1444.699285684338	584.230752050515	867.892747410553	1492.852519702332	402.772459265349	899.330821445555	945.900621533313	573.028934752968	937.857982051903	953.540320161536	300.322099697439	965.775324444535	759.256693584575	557.919060786696	903.940564056050	645.606481814526	627.957433988804	993.759034886018	598.545390245020	555.212334674899	1017.415976367602	516.985432658871	576.241038384955	947.253094158681	728.291419824479	338.263413647910	851.130194262988	622.800373115550	264.641680454949	910.550712081859	536.986271379054	340.259721220616	898.022800675334	468.880377457759	349.927391588871	862.060837692696	401.017047337952	338.941911827593	764.157194898871	299.136831335308	278.244495120530	785.663578326417	184.068165320795	355.991010357870	996.482652323155	428.346771891336	589.912609719631	932.772250887938	322.161768239977	657.948976664427	997.339127804252	228.298170707901	612.876905138635	892.013911454953	43.126107595033	592.936751369289	1055.582613772142	114.182411787760	630.574950844295	976.835695953806	41.277043018398	666.698511101231	1180.406959769309	78.401269044600	658.454782641239	636.468968483986	39.133345120649	387.288249718448	715.127304734009	35.138211173321	311.414823006080	798.069505942338	94.420746895840	344.651212711109	927.105669032287	40.070026922489	322.294898960503	1036.979826221188	1108.779500055432	116.917508757648	1291.300723858662	1056.613522329858	135.502718398761	703.988377116618	1140.867808737852	673.179423443227	664.759434940654	882.003610688281	687.777459492766	
76	37.862857142857	699.748440162719	1007.262359249257	414.785254219952	925.841212388505	1425.410191990106	257.233291234883	988.909853973023	1361.401786145349	438.215365042399	873.649027169118	1443.505469023530	588.507775216132	868.078017819189	1491.780136994414	407.058307178491	901.291533368968	944.202335748607	576.296594570717	938.710914235015	952.753468103494	303.357104165145	966.565921226681	756.577736734281	561.201205820270	902.886391507533	642.793652908910	630.027265131294	992.931991565308	596.166159198259	557.405876409267	1015.158674738849	515.173324240607	576.911121704193	946.265897158490	726.981556442166	340.433549513875	848.383072777834	622.824831159135	266.366571231942	906.739758655508	536.035509175232	341.294801733531	893.406580984157	468.154699712451	350.756667803252	857.433360904005	400.639740763730	339.600758339765	758.862364637732	299.339862887265	278.825379314412	780.320016620523	183.929424334376	356.251984038488	996.020112541319	426.198883250109	590.613625920585	934.315642626055	318.948981249977	658.804840590896	999.716738391536	226.203154272818	612.810847680929	896.311162298410	41.180602004167	593.459145953576	1059.637836021209	112.558168041278	629.612863018402	981.602210977445	39.593587197752	666.481721552858	1184.707501313271	77.173634364110	656.199491371855	630.854726872403	39.029276505141	387.304060154478	709.480482134367	35.080216444073	311.467882577734	792.464996276262	94.416231686852	344.670528208507	921.453323295504	40.031465052386	322.292827864003	1038.298197739931	1108.998233801603	120.409975500170	1293.887888103201	1064.350823652806	138.600256265654	708.176310900915	1138.029225772109	677.741589221810	670.627222900554	878.829726167857	692.047630366236	
